<mxfile host="app.diagrams.net" modified="2023-12-07T17:54:54.621Z" agent="Mozilla/5.0 (X11; Ubuntu; Linux x86_64; rv:120.0) Gecko/20100101 Firefox/120.0" etag="t3_BVfU4bJOkolJwWvcM" version="22.1.7" type="device">
  <diagram id="C5RBs43oDa-KdzZeNtuy" name="Page-1">
    <mxGraphModel dx="2954" dy="1126" grid="1" gridSize="10" guides="1" tooltips="1" connect="1" arrows="1" fold="1" page="1" pageScale="1" pageWidth="827" pageHeight="1169" math="0" shadow="0">
      <root>
        <mxCell id="WIyWlLk6GJQsqaUBKTNV-0" />
        <mxCell id="WIyWlLk6GJQsqaUBKTNV-1" parent="WIyWlLk6GJQsqaUBKTNV-0" />
        <mxCell id="7uXqOGeaRiAeMGcWkN8i-17" style="edgeStyle=orthogonalEdgeStyle;rounded=0;orthogonalLoop=1;jettySize=auto;html=1;exitX=0;exitY=0.5;exitDx=0;exitDy=0;entryX=1;entryY=0.5;entryDx=0;entryDy=0;" parent="WIyWlLk6GJQsqaUBKTNV-1" source="WIyWlLk6GJQsqaUBKTNV-3" target="0XRMf7zQcTW81m_GGGOq-4" edge="1">
          <mxGeometry relative="1" as="geometry">
            <Array as="points">
              <mxPoint x="510" y="470" />
              <mxPoint x="510" y="80" />
            </Array>
          </mxGeometry>
        </mxCell>
        <mxCell id="WIyWlLk6GJQsqaUBKTNV-3" value="Home" style="rounded=1;whiteSpace=wrap;html=1;fontSize=12;glass=0;strokeWidth=1;shadow=0;" parent="WIyWlLk6GJQsqaUBKTNV-1" vertex="1">
          <mxGeometry x="590" y="450" width="120" height="40" as="geometry" />
        </mxCell>
        <mxCell id="0XRMf7zQcTW81m_GGGOq-8" style="edgeStyle=orthogonalEdgeStyle;rounded=0;orthogonalLoop=1;jettySize=auto;html=1;exitX=0.25;exitY=1;exitDx=0;exitDy=0;entryX=0.5;entryY=0;entryDx=0;entryDy=0;" parent="WIyWlLk6GJQsqaUBKTNV-1" source="0XRMf7zQcTW81m_GGGOq-4" target="0XRMf7zQcTW81m_GGGOq-5" edge="1">
          <mxGeometry relative="1" as="geometry" />
        </mxCell>
        <mxCell id="0XRMf7zQcTW81m_GGGOq-9" style="edgeStyle=orthogonalEdgeStyle;rounded=0;orthogonalLoop=1;jettySize=auto;html=1;exitX=0.75;exitY=1;exitDx=0;exitDy=0;entryX=0.5;entryY=0;entryDx=0;entryDy=0;" parent="WIyWlLk6GJQsqaUBKTNV-1" source="0XRMf7zQcTW81m_GGGOq-4" target="0XRMf7zQcTW81m_GGGOq-6" edge="1">
          <mxGeometry relative="1" as="geometry" />
        </mxCell>
        <mxCell id="0XRMf7zQcTW81m_GGGOq-4" value="Login/Register" style="rounded=0;whiteSpace=wrap;html=1;" parent="WIyWlLk6GJQsqaUBKTNV-1" vertex="1">
          <mxGeometry x="164" y="60" width="120" height="40" as="geometry" />
        </mxCell>
        <mxCell id="0XRMf7zQcTW81m_GGGOq-10" style="edgeStyle=orthogonalEdgeStyle;rounded=0;orthogonalLoop=1;jettySize=auto;html=1;exitX=0.5;exitY=1;exitDx=0;exitDy=0;entryX=0.5;entryY=0;entryDx=0;entryDy=0;" parent="WIyWlLk6GJQsqaUBKTNV-1" source="0XRMf7zQcTW81m_GGGOq-5" target="0XRMf7zQcTW81m_GGGOq-7" edge="1">
          <mxGeometry relative="1" as="geometry" />
        </mxCell>
        <mxCell id="0XRMf7zQcTW81m_GGGOq-5" value="Register" style="rounded=0;whiteSpace=wrap;html=1;" parent="WIyWlLk6GJQsqaUBKTNV-1" vertex="1">
          <mxGeometry x="34" y="140" width="120" height="30" as="geometry" />
        </mxCell>
        <mxCell id="0XRMf7zQcTW81m_GGGOq-19" style="edgeStyle=orthogonalEdgeStyle;rounded=0;orthogonalLoop=1;jettySize=auto;html=1;entryX=0.5;entryY=0;entryDx=0;entryDy=0;" parent="WIyWlLk6GJQsqaUBKTNV-1" source="0XRMf7zQcTW81m_GGGOq-6" target="0XRMf7zQcTW81m_GGGOq-18" edge="1">
          <mxGeometry relative="1" as="geometry" />
        </mxCell>
        <mxCell id="0XRMf7zQcTW81m_GGGOq-6" value="Login" style="rounded=0;whiteSpace=wrap;html=1;" parent="WIyWlLk6GJQsqaUBKTNV-1" vertex="1">
          <mxGeometry x="284" y="140" width="120" height="30" as="geometry" />
        </mxCell>
        <mxCell id="0XRMf7zQcTW81m_GGGOq-13" style="edgeStyle=orthogonalEdgeStyle;rounded=0;orthogonalLoop=1;jettySize=auto;html=1;exitX=0.5;exitY=1;exitDx=0;exitDy=0;entryX=0.5;entryY=0;entryDx=0;entryDy=0;" parent="WIyWlLk6GJQsqaUBKTNV-1" source="0XRMf7zQcTW81m_GGGOq-7" target="0XRMf7zQcTW81m_GGGOq-11" edge="1">
          <mxGeometry relative="1" as="geometry" />
        </mxCell>
        <mxCell id="0XRMf7zQcTW81m_GGGOq-7" value="Register form" style="rounded=0;whiteSpace=wrap;html=1;" parent="WIyWlLk6GJQsqaUBKTNV-1" vertex="1">
          <mxGeometry x="34" y="220" width="120" height="30" as="geometry" />
        </mxCell>
        <mxCell id="0XRMf7zQcTW81m_GGGOq-14" style="edgeStyle=orthogonalEdgeStyle;rounded=0;orthogonalLoop=1;jettySize=auto;html=1;exitX=0.5;exitY=1;exitDx=0;exitDy=0;entryX=0.5;entryY=0;entryDx=0;entryDy=0;" parent="WIyWlLk6GJQsqaUBKTNV-1" source="0XRMf7zQcTW81m_GGGOq-11" target="0XRMf7zQcTW81m_GGGOq-12" edge="1">
          <mxGeometry relative="1" as="geometry" />
        </mxCell>
        <mxCell id="0XRMf7zQcTW81m_GGGOq-11" value="Send cuplimented form" style="rounded=0;whiteSpace=wrap;html=1;" parent="WIyWlLk6GJQsqaUBKTNV-1" vertex="1">
          <mxGeometry x="34" y="300" width="120" height="50" as="geometry" />
        </mxCell>
        <mxCell id="0XRMf7zQcTW81m_GGGOq-20" style="edgeStyle=orthogonalEdgeStyle;rounded=0;orthogonalLoop=1;jettySize=auto;html=1;exitX=0.5;exitY=1;exitDx=0;exitDy=0;entryX=0;entryY=0.5;entryDx=0;entryDy=0;" parent="WIyWlLk6GJQsqaUBKTNV-1" source="0XRMf7zQcTW81m_GGGOq-12" target="0XRMf7zQcTW81m_GGGOq-6" edge="1">
          <mxGeometry relative="1" as="geometry">
            <mxPoint x="254" y="160" as="targetPoint" />
            <Array as="points">
              <mxPoint x="94" y="500" />
              <mxPoint x="234" y="500" />
              <mxPoint x="234" y="155" />
            </Array>
          </mxGeometry>
        </mxCell>
        <mxCell id="0XRMf7zQcTW81m_GGGOq-121" style="edgeStyle=orthogonalEdgeStyle;rounded=0;orthogonalLoop=1;jettySize=auto;html=1;exitX=1;exitY=0.5;exitDx=0;exitDy=0;entryX=1;entryY=0.5;entryDx=0;entryDy=0;" parent="WIyWlLk6GJQsqaUBKTNV-1" source="0XRMf7zQcTW81m_GGGOq-12" target="0XRMf7zQcTW81m_GGGOq-5" edge="1">
          <mxGeometry relative="1" as="geometry">
            <Array as="points">
              <mxPoint x="194" y="440" />
              <mxPoint x="194" y="155" />
            </Array>
          </mxGeometry>
        </mxCell>
        <mxCell id="0XRMf7zQcTW81m_GGGOq-12" value="Validate" style="rhombus;whiteSpace=wrap;html=1;" parent="WIyWlLk6GJQsqaUBKTNV-1" vertex="1">
          <mxGeometry x="54" y="400" width="80" height="80" as="geometry" />
        </mxCell>
        <mxCell id="0XRMf7zQcTW81m_GGGOq-16" value="No" style="text;html=1;align=center;verticalAlign=middle;resizable=0;points=[];autosize=1;strokeColor=none;fillColor=none;" parent="WIyWlLk6GJQsqaUBKTNV-1" vertex="1">
          <mxGeometry x="134" y="410" width="40" height="30" as="geometry" />
        </mxCell>
        <mxCell id="0XRMf7zQcTW81m_GGGOq-24" style="edgeStyle=orthogonalEdgeStyle;rounded=0;orthogonalLoop=1;jettySize=auto;html=1;exitX=0.5;exitY=1;exitDx=0;exitDy=0;entryX=0.5;entryY=0;entryDx=0;entryDy=0;" parent="WIyWlLk6GJQsqaUBKTNV-1" source="0XRMf7zQcTW81m_GGGOq-18" target="0XRMf7zQcTW81m_GGGOq-23" edge="1">
          <mxGeometry relative="1" as="geometry" />
        </mxCell>
        <mxCell id="0XRMf7zQcTW81m_GGGOq-18" value="Data access" style="rounded=0;whiteSpace=wrap;html=1;" parent="WIyWlLk6GJQsqaUBKTNV-1" vertex="1">
          <mxGeometry x="284" y="220" width="120" height="30" as="geometry" />
        </mxCell>
        <mxCell id="0XRMf7zQcTW81m_GGGOq-22" value="Yes" style="text;html=1;align=center;verticalAlign=middle;resizable=0;points=[];autosize=1;strokeColor=none;fillColor=none;" parent="WIyWlLk6GJQsqaUBKTNV-1" vertex="1">
          <mxGeometry x="94" y="470" width="40" height="30" as="geometry" />
        </mxCell>
        <mxCell id="0XRMf7zQcTW81m_GGGOq-26" style="edgeStyle=orthogonalEdgeStyle;rounded=0;orthogonalLoop=1;jettySize=auto;html=1;entryX=0.5;entryY=0;entryDx=0;entryDy=0;" parent="WIyWlLk6GJQsqaUBKTNV-1" source="0XRMf7zQcTW81m_GGGOq-23" target="0XRMf7zQcTW81m_GGGOq-25" edge="1">
          <mxGeometry relative="1" as="geometry" />
        </mxCell>
        <mxCell id="0XRMf7zQcTW81m_GGGOq-23" value="Send data access" style="rounded=0;whiteSpace=wrap;html=1;" parent="WIyWlLk6GJQsqaUBKTNV-1" vertex="1">
          <mxGeometry x="284" y="300" width="120" height="50" as="geometry" />
        </mxCell>
        <mxCell id="0XRMf7zQcTW81m_GGGOq-27" style="edgeStyle=orthogonalEdgeStyle;rounded=0;orthogonalLoop=1;jettySize=auto;html=1;exitX=1;exitY=0.5;exitDx=0;exitDy=0;entryX=1;entryY=0.5;entryDx=0;entryDy=0;" parent="WIyWlLk6GJQsqaUBKTNV-1" source="0XRMf7zQcTW81m_GGGOq-25" target="0XRMf7zQcTW81m_GGGOq-6" edge="1">
          <mxGeometry relative="1" as="geometry">
            <mxPoint x="444" y="150" as="targetPoint" />
            <Array as="points">
              <mxPoint x="444" y="435" />
              <mxPoint x="444" y="155" />
            </Array>
          </mxGeometry>
        </mxCell>
        <mxCell id="0XRMf7zQcTW81m_GGGOq-34" style="edgeStyle=orthogonalEdgeStyle;rounded=0;orthogonalLoop=1;jettySize=auto;html=1;entryX=0.5;entryY=0;entryDx=0;entryDy=0;" parent="WIyWlLk6GJQsqaUBKTNV-1" source="0XRMf7zQcTW81m_GGGOq-25" target="0XRMf7zQcTW81m_GGGOq-32" edge="1">
          <mxGeometry relative="1" as="geometry" />
        </mxCell>
        <mxCell id="0XRMf7zQcTW81m_GGGOq-25" value="Validate" style="rhombus;whiteSpace=wrap;html=1;" parent="WIyWlLk6GJQsqaUBKTNV-1" vertex="1">
          <mxGeometry x="304" y="395" width="80" height="80" as="geometry" />
        </mxCell>
        <mxCell id="0XRMf7zQcTW81m_GGGOq-28" value="No" style="text;html=1;align=center;verticalAlign=middle;resizable=0;points=[];autosize=1;strokeColor=none;fillColor=none;" parent="WIyWlLk6GJQsqaUBKTNV-1" vertex="1">
          <mxGeometry x="384" y="400" width="40" height="30" as="geometry" />
        </mxCell>
        <mxCell id="0XRMf7zQcTW81m_GGGOq-30" value="Yes" style="text;html=1;align=center;verticalAlign=middle;resizable=0;points=[];autosize=1;strokeColor=none;fillColor=none;" parent="WIyWlLk6GJQsqaUBKTNV-1" vertex="1">
          <mxGeometry x="344" y="500" width="40" height="30" as="geometry" />
        </mxCell>
        <mxCell id="7uXqOGeaRiAeMGcWkN8i-14" style="edgeStyle=orthogonalEdgeStyle;rounded=0;orthogonalLoop=1;jettySize=auto;html=1;exitX=0;exitY=0.5;exitDx=0;exitDy=0;entryX=0.5;entryY=1;entryDx=0;entryDy=0;" parent="WIyWlLk6GJQsqaUBKTNV-1" source="0XRMf7zQcTW81m_GGGOq-32" target="0XRMf7zQcTW81m_GGGOq-46" edge="1">
          <mxGeometry relative="1" as="geometry">
            <Array as="points">
              <mxPoint x="20" y="556" />
              <mxPoint x="20" y="930" />
              <mxPoint x="650" y="930" />
            </Array>
          </mxGeometry>
        </mxCell>
        <mxCell id="0XRMf7zQcTW81m_GGGOq-32" value="Access (token acquisition)" style="rounded=0;whiteSpace=wrap;html=1;" parent="WIyWlLk6GJQsqaUBKTNV-1" vertex="1">
          <mxGeometry x="284" y="530" width="120" height="52" as="geometry" />
        </mxCell>
        <mxCell id="7uXqOGeaRiAeMGcWkN8i-3" style="edgeStyle=orthogonalEdgeStyle;rounded=0;orthogonalLoop=1;jettySize=auto;html=1;exitX=0;exitY=0.5;exitDx=0;exitDy=0;entryX=1;entryY=0.5;entryDx=0;entryDy=0;" parent="WIyWlLk6GJQsqaUBKTNV-1" source="0XRMf7zQcTW81m_GGGOq-46" target="0XRMf7zQcTW81m_GGGOq-56" edge="1">
          <mxGeometry relative="1" as="geometry" />
        </mxCell>
        <mxCell id="7uXqOGeaRiAeMGcWkN8i-16" style="edgeStyle=orthogonalEdgeStyle;rounded=0;orthogonalLoop=1;jettySize=auto;html=1;exitX=0.5;exitY=0;exitDx=0;exitDy=0;entryX=0.5;entryY=1;entryDx=0;entryDy=0;" parent="WIyWlLk6GJQsqaUBKTNV-1" source="0XRMf7zQcTW81m_GGGOq-46" target="7uXqOGeaRiAeMGcWkN8i-15" edge="1">
          <mxGeometry relative="1" as="geometry" />
        </mxCell>
        <mxCell id="0XRMf7zQcTW81m_GGGOq-46" value="Profile" style="rounded=0;whiteSpace=wrap;html=1;" parent="WIyWlLk6GJQsqaUBKTNV-1" vertex="1">
          <mxGeometry x="590" y="760" width="120" height="30" as="geometry" />
        </mxCell>
        <mxCell id="7uXqOGeaRiAeMGcWkN8i-19" style="edgeStyle=orthogonalEdgeStyle;rounded=0;orthogonalLoop=1;jettySize=auto;html=1;exitX=0;exitY=0.5;exitDx=0;exitDy=0;entryX=0;entryY=0.5;entryDx=0;entryDy=0;" parent="WIyWlLk6GJQsqaUBKTNV-1" source="0XRMf7zQcTW81m_GGGOq-55" target="7uXqOGeaRiAeMGcWkN8i-11" edge="1">
          <mxGeometry relative="1" as="geometry">
            <Array as="points">
              <mxPoint x="50" y="775" />
              <mxPoint x="50" y="665" />
            </Array>
          </mxGeometry>
        </mxCell>
        <mxCell id="0XRMf7zQcTW81m_GGGOq-55" value="Exercises" style="rounded=0;whiteSpace=wrap;html=1;" parent="WIyWlLk6GJQsqaUBKTNV-1" vertex="1">
          <mxGeometry x="94" y="755" width="120" height="40" as="geometry" />
        </mxCell>
        <mxCell id="7uXqOGeaRiAeMGcWkN8i-5" style="edgeStyle=orthogonalEdgeStyle;rounded=0;orthogonalLoop=1;jettySize=auto;html=1;exitX=0;exitY=0.5;exitDx=0;exitDy=0;entryX=1;entryY=0.5;entryDx=0;entryDy=0;" parent="WIyWlLk6GJQsqaUBKTNV-1" source="0XRMf7zQcTW81m_GGGOq-56" target="7uXqOGeaRiAeMGcWkN8i-4" edge="1">
          <mxGeometry relative="1" as="geometry" />
        </mxCell>
        <mxCell id="0XRMf7zQcTW81m_GGGOq-56" value="&lt;div&gt;client appointments with me&lt;br&gt;&lt;/div&gt;" style="rounded=0;whiteSpace=wrap;html=1;" parent="WIyWlLk6GJQsqaUBKTNV-1" vertex="1">
          <mxGeometry x="414" y="755" width="120" height="40" as="geometry" />
        </mxCell>
        <mxCell id="0XRMf7zQcTW81m_GGGOq-69" style="edgeStyle=orthogonalEdgeStyle;rounded=0;orthogonalLoop=1;jettySize=auto;html=1;exitX=0.5;exitY=1;exitDx=0;exitDy=0;" parent="WIyWlLk6GJQsqaUBKTNV-1" edge="1">
          <mxGeometry relative="1" as="geometry">
            <mxPoint x="224" y="710" as="sourcePoint" />
            <mxPoint x="224" y="710" as="targetPoint" />
          </mxGeometry>
        </mxCell>
        <mxCell id="7uXqOGeaRiAeMGcWkN8i-6" style="edgeStyle=orthogonalEdgeStyle;rounded=0;orthogonalLoop=1;jettySize=auto;html=1;exitX=0;exitY=0.5;exitDx=0;exitDy=0;entryX=1;entryY=0.5;entryDx=0;entryDy=0;" parent="WIyWlLk6GJQsqaUBKTNV-1" source="7uXqOGeaRiAeMGcWkN8i-4" target="0XRMf7zQcTW81m_GGGOq-55" edge="1">
          <mxGeometry relative="1" as="geometry" />
        </mxCell>
        <mxCell id="7uXqOGeaRiAeMGcWkN8i-7" style="edgeStyle=orthogonalEdgeStyle;rounded=0;orthogonalLoop=1;jettySize=auto;html=1;exitX=0.5;exitY=1;exitDx=0;exitDy=0;entryX=0.5;entryY=1;entryDx=0;entryDy=0;" parent="WIyWlLk6GJQsqaUBKTNV-1" source="7uXqOGeaRiAeMGcWkN8i-4" target="0XRMf7zQcTW81m_GGGOq-56" edge="1">
          <mxGeometry relative="1" as="geometry" />
        </mxCell>
        <mxCell id="7uXqOGeaRiAeMGcWkN8i-4" value="Select exercises" style="rhombus;whiteSpace=wrap;html=1;" parent="WIyWlLk6GJQsqaUBKTNV-1" vertex="1">
          <mxGeometry x="280" y="735" width="80" height="80" as="geometry" />
        </mxCell>
        <mxCell id="7uXqOGeaRiAeMGcWkN8i-9" value="Yes" style="text;html=1;align=center;verticalAlign=middle;resizable=0;points=[];autosize=1;strokeColor=none;fillColor=none;" parent="WIyWlLk6GJQsqaUBKTNV-1" vertex="1">
          <mxGeometry x="240" y="748" width="40" height="30" as="geometry" />
        </mxCell>
        <mxCell id="7uXqOGeaRiAeMGcWkN8i-10" value="No" style="text;html=1;align=center;verticalAlign=middle;resizable=0;points=[];autosize=1;strokeColor=none;fillColor=none;" parent="WIyWlLk6GJQsqaUBKTNV-1" vertex="1">
          <mxGeometry x="320" y="808" width="40" height="30" as="geometry" />
        </mxCell>
        <mxCell id="7uXqOGeaRiAeMGcWkN8i-20" style="edgeStyle=orthogonalEdgeStyle;rounded=0;orthogonalLoop=1;jettySize=auto;html=1;exitX=1;exitY=0.5;exitDx=0;exitDy=0;entryX=0;entryY=0.5;entryDx=0;entryDy=0;" parent="WIyWlLk6GJQsqaUBKTNV-1" source="7uXqOGeaRiAeMGcWkN8i-11" target="7uXqOGeaRiAeMGcWkN8i-18" edge="1">
          <mxGeometry relative="1" as="geometry" />
        </mxCell>
        <mxCell id="7uXqOGeaRiAeMGcWkN8i-11" value="Update appointment" style="rounded=0;whiteSpace=wrap;html=1;" parent="WIyWlLk6GJQsqaUBKTNV-1" vertex="1">
          <mxGeometry x="90" y="645" width="120" height="40" as="geometry" />
        </mxCell>
        <mxCell id="IwEWNmHj8JtInpfodWWQ-0" style="edgeStyle=orthogonalEdgeStyle;rounded=0;orthogonalLoop=1;jettySize=auto;html=1;exitX=0.5;exitY=0;exitDx=0;exitDy=0;entryX=0.5;entryY=1;entryDx=0;entryDy=0;" edge="1" parent="WIyWlLk6GJQsqaUBKTNV-1" source="7uXqOGeaRiAeMGcWkN8i-15" target="WIyWlLk6GJQsqaUBKTNV-3">
          <mxGeometry relative="1" as="geometry" />
        </mxCell>
        <mxCell id="7uXqOGeaRiAeMGcWkN8i-15" value="LogOut" style="rounded=0;whiteSpace=wrap;html=1;" parent="WIyWlLk6GJQsqaUBKTNV-1" vertex="1">
          <mxGeometry x="590" y="650" width="120" height="30" as="geometry" />
        </mxCell>
        <mxCell id="7uXqOGeaRiAeMGcWkN8i-21" style="edgeStyle=orthogonalEdgeStyle;rounded=0;orthogonalLoop=1;jettySize=auto;html=1;exitX=1;exitY=0.5;exitDx=0;exitDy=0;entryX=0.5;entryY=0;entryDx=0;entryDy=0;" parent="WIyWlLk6GJQsqaUBKTNV-1" source="7uXqOGeaRiAeMGcWkN8i-18" target="0XRMf7zQcTW81m_GGGOq-56" edge="1">
          <mxGeometry relative="1" as="geometry" />
        </mxCell>
        <mxCell id="7uXqOGeaRiAeMGcWkN8i-18" value="Send email alert to client" style="rounded=0;whiteSpace=wrap;html=1;" parent="WIyWlLk6GJQsqaUBKTNV-1" vertex="1">
          <mxGeometry x="264" y="645" width="120" height="40" as="geometry" />
        </mxCell>
      </root>
    </mxGraphModel>
  </diagram>
</mxfile>
